<mxfile host="65bd71144e">
    <diagram id="y5Ir1uq-bIaTkiJV2Tjh" name="Page-1">
        <mxGraphModel dx="199" dy="84" grid="1" gridSize="10" guides="1" tooltips="1" connect="1" arrows="1" fold="1" page="1" pageScale="1" pageWidth="850" pageHeight="1100" math="0" shadow="0">
            <root>
                <mxCell id="0"/>
                <mxCell id="1" parent="0"/>
                <mxCell id="4" value="" style="edgeStyle=none;html=1;" edge="1" parent="1" source="QSaYC3hY5f7kPyK0T7Ko-4" target="QSaYC3hY5f7kPyK0T7Ko-15">
                    <mxGeometry relative="1" as="geometry"/>
                </mxCell>
                <mxCell id="QSaYC3hY5f7kPyK0T7Ko-4" value="&lt;div&gt;Administrátor&lt;/div&gt;" style="shape=umlActor;verticalLabelPosition=bottom;verticalAlign=top;html=1;outlineConnect=0;" parent="1" vertex="1">
                    <mxGeometry x="260" y="170" width="30" height="60" as="geometry"/>
                </mxCell>
                <mxCell id="QSaYC3hY5f7kPyK0T7Ko-5" value="Smazat uživatele" style="ellipse;whiteSpace=wrap;html=1;" parent="1" vertex="1">
                    <mxGeometry x="40" y="140" width="135" height="40" as="geometry"/>
                </mxCell>
                <mxCell id="QSaYC3hY5f7kPyK0T7Ko-8" value="Změnit roli uživatele" style="ellipse;whiteSpace=wrap;html=1;" parent="1" vertex="1">
                    <mxGeometry x="40" y="210" width="135" height="40" as="geometry"/>
                </mxCell>
                <mxCell id="QSaYC3hY5f7kPyK0T7Ko-15" value="Moderátor" style="shape=umlActor;verticalLabelPosition=bottom;verticalAlign=top;html=1;outlineConnect=0;" parent="1" vertex="1">
                    <mxGeometry x="260" y="340" width="30" height="60" as="geometry"/>
                </mxCell>
                <mxCell id="QSaYC3hY5f7kPyK0T7Ko-17" value="Potvrzení předmětů" style="ellipse;whiteSpace=wrap;html=1;" parent="1" vertex="1">
                    <mxGeometry x="30" y="340" width="135" height="40" as="geometry"/>
                </mxCell>
                <mxCell id="QSaYC3hY5f7kPyK0T7Ko-26" value="&quot;student předmětu&quot;" style="shape=umlActor;verticalLabelPosition=bottom;verticalAlign=top;html=1;outlineConnect=0;" parent="1" vertex="1">
                    <mxGeometry x="390" y="400" width="30" height="60" as="geometry"/>
                </mxCell>
                <mxCell id="QSaYC3hY5f7kPyK0T7Ko-29" value="Pokláda otázky" style="ellipse;whiteSpace=wrap;html=1;" parent="1" vertex="1">
                    <mxGeometry x="550" y="320" width="135" height="40" as="geometry"/>
                </mxCell>
                <mxCell id="QSaYC3hY5f7kPyK0T7Ko-30" value="Píše odpovědi" style="ellipse;whiteSpace=wrap;html=1;" parent="1" vertex="1">
                    <mxGeometry x="550" y="380" width="135" height="40" as="geometry"/>
                </mxCell>
                <mxCell id="QSaYC3hY5f7kPyK0T7Ko-34" value="Reaguje na odpovědi" style="ellipse;whiteSpace=wrap;html=1;" parent="1" vertex="1">
                    <mxGeometry x="550" y="450" width="135" height="40" as="geometry"/>
                </mxCell>
                <mxCell id="QSaYC3hY5f7kPyK0T7Ko-35" value="Hlaseju pro odpovědi" style="ellipse;whiteSpace=wrap;html=1;" parent="1" vertex="1">
                    <mxGeometry x="550" y="510" width="135" height="40" as="geometry"/>
                </mxCell>
                <mxCell id="QSaYC3hY5f7kPyK0T7Ko-37" value="" style="endArrow=none;html=1;rounded=0;entryX=0;entryY=0.5;entryDx=0;entryDy=0;" parent="1" target="QSaYC3hY5f7kPyK0T7Ko-29" edge="1">
                    <mxGeometry width="50" height="50" relative="1" as="geometry">
                        <mxPoint x="430" y="410" as="sourcePoint"/>
                        <mxPoint x="440" y="370" as="targetPoint"/>
                    </mxGeometry>
                </mxCell>
                <mxCell id="QSaYC3hY5f7kPyK0T7Ko-38" value="" style="endArrow=none;html=1;rounded=0;entryX=0;entryY=0.5;entryDx=0;entryDy=0;" parent="1" target="QSaYC3hY5f7kPyK0T7Ko-30" edge="1">
                    <mxGeometry width="50" height="50" relative="1" as="geometry">
                        <mxPoint x="440" y="420" as="sourcePoint"/>
                        <mxPoint x="440" y="370" as="targetPoint"/>
                    </mxGeometry>
                </mxCell>
                <mxCell id="QSaYC3hY5f7kPyK0T7Ko-39" value="" style="endArrow=none;html=1;rounded=0;entryX=0;entryY=0.5;entryDx=0;entryDy=0;" parent="1" target="QSaYC3hY5f7kPyK0T7Ko-34" edge="1">
                    <mxGeometry width="50" height="50" relative="1" as="geometry">
                        <mxPoint x="440" y="440" as="sourcePoint"/>
                        <mxPoint x="440" y="370" as="targetPoint"/>
                    </mxGeometry>
                </mxCell>
                <mxCell id="QSaYC3hY5f7kPyK0T7Ko-40" value="" style="endArrow=none;html=1;rounded=0;entryX=0;entryY=0.5;entryDx=0;entryDy=0;" parent="1" target="QSaYC3hY5f7kPyK0T7Ko-35" edge="1">
                    <mxGeometry width="50" height="50" relative="1" as="geometry">
                        <mxPoint x="430" y="450" as="sourcePoint"/>
                        <mxPoint x="440" y="370" as="targetPoint"/>
                    </mxGeometry>
                </mxCell>
                <mxCell id="QSaYC3hY5f7kPyK0T7Ko-41" value="Registrovaný uživatel" style="shape=umlActor;verticalLabelPosition=bottom;verticalAlign=top;html=1;outlineConnect=0;" parent="1" vertex="1">
                    <mxGeometry x="260" y="520" width="30" height="60" as="geometry"/>
                </mxCell>
                <mxCell id="QSaYC3hY5f7kPyK0T7Ko-42" value="Vytvořit předmět" style="ellipse;whiteSpace=wrap;html=1;" parent="1" vertex="1">
                    <mxGeometry x="30" y="530" width="135" height="40" as="geometry"/>
                </mxCell>
                <mxCell id="QSaYC3hY5f7kPyK0T7Ko-43" value="" style="endArrow=none;html=1;rounded=0;exitX=1;exitY=0.5;exitDx=0;exitDy=0;" parent="1" source="QSaYC3hY5f7kPyK0T7Ko-42" target="QSaYC3hY5f7kPyK0T7Ko-41" edge="1">
                    <mxGeometry width="50" height="50" relative="1" as="geometry">
                        <mxPoint x="320" y="630" as="sourcePoint"/>
                        <mxPoint x="370" y="580" as="targetPoint"/>
                    </mxGeometry>
                </mxCell>
                <mxCell id="QSaYC3hY5f7kPyK0T7Ko-55" value="&quot;vedoucí kurzu&quot;" style="shape=umlActor;verticalLabelPosition=bottom;verticalAlign=top;html=1;outlineConnect=0;" parent="1" vertex="1">
                    <mxGeometry x="390" y="660" width="30" height="60" as="geometry"/>
                </mxCell>
                <mxCell id="QSaYC3hY5f7kPyK0T7Ko-56" value="Potvrzuje studenty" style="ellipse;whiteSpace=wrap;html=1;" parent="1" vertex="1">
                    <mxGeometry x="550" y="580" width="135" height="40" as="geometry"/>
                </mxCell>
                <mxCell id="QSaYC3hY5f7kPyK0T7Ko-57" value="Přidává kategorie" style="ellipse;whiteSpace=wrap;html=1;" parent="1" vertex="1">
                    <mxGeometry x="550" y="640" width="135" height="40" as="geometry"/>
                </mxCell>
                <mxCell id="QSaYC3hY5f7kPyK0T7Ko-58" value="Pokládá otázky" style="ellipse;whiteSpace=wrap;html=1;" parent="1" vertex="1">
                    <mxGeometry x="550" y="710" width="135" height="40" as="geometry"/>
                </mxCell>
                <mxCell id="QSaYC3hY5f7kPyK0T7Ko-59" value="Píše správnou odpověď&lt;br&gt;otázky" style="ellipse;whiteSpace=wrap;html=1;" parent="1" vertex="1">
                    <mxGeometry x="550" y="770" width="140" height="70" as="geometry"/>
                </mxCell>
                <mxCell id="QSaYC3hY5f7kPyK0T7Ko-60" value="" style="endArrow=none;html=1;rounded=0;entryX=0;entryY=0.5;entryDx=0;entryDy=0;" parent="1" target="QSaYC3hY5f7kPyK0T7Ko-56" edge="1">
                    <mxGeometry width="50" height="50" relative="1" as="geometry">
                        <mxPoint x="430" y="670" as="sourcePoint"/>
                        <mxPoint x="440" y="630" as="targetPoint"/>
                    </mxGeometry>
                </mxCell>
                <mxCell id="QSaYC3hY5f7kPyK0T7Ko-61" value="" style="endArrow=none;html=1;rounded=0;entryX=0;entryY=0.5;entryDx=0;entryDy=0;" parent="1" target="QSaYC3hY5f7kPyK0T7Ko-57" edge="1">
                    <mxGeometry width="50" height="50" relative="1" as="geometry">
                        <mxPoint x="440" y="680" as="sourcePoint"/>
                        <mxPoint x="440" y="630" as="targetPoint"/>
                    </mxGeometry>
                </mxCell>
                <mxCell id="QSaYC3hY5f7kPyK0T7Ko-62" value="" style="endArrow=none;html=1;rounded=0;entryX=0;entryY=0.5;entryDx=0;entryDy=0;" parent="1" target="QSaYC3hY5f7kPyK0T7Ko-58" edge="1">
                    <mxGeometry width="50" height="50" relative="1" as="geometry">
                        <mxPoint x="440" y="700" as="sourcePoint"/>
                        <mxPoint x="440" y="630" as="targetPoint"/>
                    </mxGeometry>
                </mxCell>
                <mxCell id="QSaYC3hY5f7kPyK0T7Ko-63" value="" style="endArrow=none;html=1;rounded=0;entryX=0;entryY=0.5;entryDx=0;entryDy=0;" parent="1" target="QSaYC3hY5f7kPyK0T7Ko-59" edge="1">
                    <mxGeometry width="50" height="50" relative="1" as="geometry">
                        <mxPoint x="430" y="710" as="sourcePoint"/>
                        <mxPoint x="440" y="630" as="targetPoint"/>
                    </mxGeometry>
                </mxCell>
                <mxCell id="QSaYC3hY5f7kPyK0T7Ko-67" value="" style="endArrow=none;html=1;rounded=0;exitX=1;exitY=0.5;exitDx=0;exitDy=0;" parent="1" source="QSaYC3hY5f7kPyK0T7Ko-17" edge="1">
                    <mxGeometry width="50" height="50" relative="1" as="geometry">
                        <mxPoint x="190" y="450" as="sourcePoint"/>
                        <mxPoint x="250" y="380" as="targetPoint"/>
                    </mxGeometry>
                </mxCell>
                <mxCell id="QSaYC3hY5f7kPyK0T7Ko-68" value="" style="endArrow=none;html=1;rounded=0;entryX=1;entryY=0.5;entryDx=0;entryDy=0;" parent="1" target="QSaYC3hY5f7kPyK0T7Ko-5" edge="1">
                    <mxGeometry width="50" height="50" relative="1" as="geometry">
                        <mxPoint x="250" y="200" as="sourcePoint"/>
                        <mxPoint x="330" y="450" as="targetPoint"/>
                    </mxGeometry>
                </mxCell>
                <mxCell id="QSaYC3hY5f7kPyK0T7Ko-69" value="" style="endArrow=none;html=1;rounded=0;entryX=1;entryY=0.5;entryDx=0;entryDy=0;" parent="1" target="QSaYC3hY5f7kPyK0T7Ko-8" edge="1">
                    <mxGeometry width="50" height="50" relative="1" as="geometry">
                        <mxPoint x="250" y="210" as="sourcePoint"/>
                        <mxPoint x="220" y="220" as="targetPoint"/>
                    </mxGeometry>
                </mxCell>
                <mxCell id="QSaYC3hY5f7kPyK0T7Ko-70" value="" style="endArrow=classic;html=1;rounded=0;" parent="1" edge="1">
                    <mxGeometry width="50" height="50" relative="1" as="geometry">
                        <mxPoint x="275" y="250" as="sourcePoint"/>
                        <mxPoint x="275" y="330" as="targetPoint"/>
                    </mxGeometry>
                </mxCell>
                <mxCell id="QSaYC3hY5f7kPyK0T7Ko-73" value="" style="endArrow=classic;html=1;rounded=0;" parent="1" edge="1">
                    <mxGeometry width="50" height="50" relative="1" as="geometry">
                        <mxPoint x="274.5" y="430" as="sourcePoint"/>
                        <mxPoint x="274.5" y="510" as="targetPoint"/>
                    </mxGeometry>
                </mxCell>
                <mxCell id="QSaYC3hY5f7kPyK0T7Ko-75" value="" style="endArrow=classic;html=1;rounded=0;" parent="1" edge="1">
                    <mxGeometry width="50" height="50" relative="1" as="geometry">
                        <mxPoint x="390" y="670" as="sourcePoint"/>
                        <mxPoint x="300" y="550" as="targetPoint"/>
                    </mxGeometry>
                </mxCell>
                <mxCell id="QSaYC3hY5f7kPyK0T7Ko-76" value="" style="endArrow=classic;html=1;rounded=0;" parent="1" edge="1">
                    <mxGeometry width="50" height="50" relative="1" as="geometry">
                        <mxPoint x="390" y="440" as="sourcePoint"/>
                        <mxPoint x="300" y="540" as="targetPoint"/>
                    </mxGeometry>
                </mxCell>
                <mxCell id="QSaYC3hY5f7kPyK0T7Ko-77" value="Neregistrovaný uživatel" style="shape=umlActor;verticalLabelPosition=bottom;verticalAlign=top;html=1;outlineConnect=0;" parent="1" vertex="1">
                    <mxGeometry x="260" y="790" width="30" height="60" as="geometry"/>
                </mxCell>
                <mxCell id="QSaYC3hY5f7kPyK0T7Ko-78" value="" style="endArrow=classic;html=1;rounded=0;" parent="1" edge="1">
                    <mxGeometry width="50" height="50" relative="1" as="geometry">
                        <mxPoint x="274.5" y="610" as="sourcePoint"/>
                        <mxPoint x="275" y="770" as="targetPoint"/>
                    </mxGeometry>
                </mxCell>
                <mxCell id="QSaYC3hY5f7kPyK0T7Ko-79" value="Prohlížet reakce" style="ellipse;whiteSpace=wrap;html=1;" parent="1" vertex="1">
                    <mxGeometry x="40" y="710" width="135" height="40" as="geometry"/>
                </mxCell>
                <mxCell id="QSaYC3hY5f7kPyK0T7Ko-80" value="Prohlížet odpovědi" style="ellipse;whiteSpace=wrap;html=1;" parent="1" vertex="1">
                    <mxGeometry x="40" y="770" width="135" height="40" as="geometry"/>
                </mxCell>
                <mxCell id="QSaYC3hY5f7kPyK0T7Ko-81" value="Prohlížet otázky" style="ellipse;whiteSpace=wrap;html=1;" parent="1" vertex="1">
                    <mxGeometry x="40" y="830" width="135" height="40" as="geometry"/>
                </mxCell>
                <mxCell id="QSaYC3hY5f7kPyK0T7Ko-82" value="Vytvořit účet" style="ellipse;whiteSpace=wrap;html=1;" parent="1" vertex="1">
                    <mxGeometry x="340" y="890" width="135" height="40" as="geometry"/>
                </mxCell>
                <mxCell id="QSaYC3hY5f7kPyK0T7Ko-83" value="" style="endArrow=none;html=1;rounded=0;entryX=1;entryY=0.5;entryDx=0;entryDy=0;" parent="1" target="QSaYC3hY5f7kPyK0T7Ko-79" edge="1">
                    <mxGeometry width="50" height="50" relative="1" as="geometry">
                        <mxPoint x="250" y="790" as="sourcePoint"/>
                        <mxPoint x="340" y="710" as="targetPoint"/>
                    </mxGeometry>
                </mxCell>
                <mxCell id="QSaYC3hY5f7kPyK0T7Ko-84" value="" style="endArrow=none;html=1;rounded=0;exitX=1;exitY=0.5;exitDx=0;exitDy=0;" parent="1" source="QSaYC3hY5f7kPyK0T7Ko-80" edge="1">
                    <mxGeometry width="50" height="50" relative="1" as="geometry">
                        <mxPoint x="290" y="760" as="sourcePoint"/>
                        <mxPoint x="250" y="800" as="targetPoint"/>
                    </mxGeometry>
                </mxCell>
                <mxCell id="QSaYC3hY5f7kPyK0T7Ko-86" value="" style="endArrow=none;html=1;rounded=0;exitX=1;exitY=0.5;exitDx=0;exitDy=0;" parent="1" source="QSaYC3hY5f7kPyK0T7Ko-81" edge="1">
                    <mxGeometry width="50" height="50" relative="1" as="geometry">
                        <mxPoint x="290" y="760" as="sourcePoint"/>
                        <mxPoint x="250" y="820" as="targetPoint"/>
                    </mxGeometry>
                </mxCell>
                <mxCell id="QSaYC3hY5f7kPyK0T7Ko-88" value="" style="endArrow=none;html=1;rounded=0;exitX=0.5;exitY=0;exitDx=0;exitDy=0;" parent="1" source="QSaYC3hY5f7kPyK0T7Ko-82" target="QSaYC3hY5f7kPyK0T7Ko-77" edge="1">
                    <mxGeometry width="50" height="50" relative="1" as="geometry">
                        <mxPoint x="290" y="760" as="sourcePoint"/>
                        <mxPoint x="250" y="830" as="targetPoint"/>
                    </mxGeometry>
                </mxCell>
                <mxCell id="QSaYC3hY5f7kPyK0T7Ko-99" value="&amp;lt;&amp;lt;Include &amp;gt;&amp;gt;" style="text;html=1;strokeColor=none;fillColor=none;align=center;verticalAlign=middle;whiteSpace=wrap;rounded=0;rotation=-95;" parent="1" vertex="1">
                    <mxGeometry x="490" y="840" width="110" height="30" as="geometry"/>
                </mxCell>
                <mxCell id="QSaYC3hY5f7kPyK0T7Ko-100" value="" style="endArrow=none;dashed=1;html=1;dashPattern=1 3;strokeWidth=2;rounded=0;elbow=vertical;exitX=0;exitY=1;exitDx=0;exitDy=0;entryX=0.086;entryY=0.825;entryDx=0;entryDy=0;entryPerimeter=0;" parent="1" source="QSaYC3hY5f7kPyK0T7Ko-59" target="QSaYC3hY5f7kPyK0T7Ko-103" edge="1">
                    <mxGeometry width="50" height="50" relative="1" as="geometry">
                        <mxPoint x="683" y="790" as="sourcePoint"/>
                        <mxPoint x="800" y="760" as="targetPoint"/>
                    </mxGeometry>
                </mxCell>
                <mxCell id="QSaYC3hY5f7kPyK0T7Ko-103" value="opravuje odpovědi" style="ellipse;whiteSpace=wrap;html=1;" parent="1" vertex="1">
                    <mxGeometry x="570" y="890" width="140" height="40" as="geometry"/>
                </mxCell>
                <mxCell id="QSaYC3hY5f7kPyK0T7Ko-109" value="" style="endArrow=none;dashed=1;html=1;dashPattern=1 3;strokeWidth=2;rounded=0;elbow=vertical;exitX=1;exitY=0.5;exitDx=0;exitDy=0;entryX=1;entryY=0.5;entryDx=0;entryDy=0;" parent="1" source="QSaYC3hY5f7kPyK0T7Ko-103" target="QSaYC3hY5f7kPyK0T7Ko-112" edge="1">
                    <mxGeometry width="50" height="50" relative="1" as="geometry">
                        <mxPoint x="820" y="700" as="sourcePoint"/>
                        <mxPoint x="970" y="690" as="targetPoint"/>
                    </mxGeometry>
                </mxCell>
                <mxCell id="QSaYC3hY5f7kPyK0T7Ko-112" value="přidává body za&lt;br&gt;odpověď" style="ellipse;whiteSpace=wrap;html=1;" parent="1" vertex="1">
                    <mxGeometry x="540" y="970" width="135" height="50" as="geometry"/>
                </mxCell>
                <mxCell id="QSaYC3hY5f7kPyK0T7Ko-114" value="&amp;lt;&amp;lt;Include &amp;gt;&amp;gt;" style="text;html=1;strokeColor=none;fillColor=none;align=center;verticalAlign=middle;whiteSpace=wrap;rounded=0;rotation=105;" parent="1" vertex="1">
                    <mxGeometry x="660" y="940" width="110" height="30" as="geometry"/>
                </mxCell>
                <mxCell id="2" value="Prohlížet předměty" style="ellipse;whiteSpace=wrap;html=1;" parent="1" vertex="1">
                    <mxGeometry x="50" y="880" width="135" height="40" as="geometry"/>
                </mxCell>
                <mxCell id="3" value="" style="endArrow=none;html=1;rounded=0;exitX=1;exitY=0.5;exitDx=0;exitDy=0;" parent="1" source="2" target="QSaYC3hY5f7kPyK0T7Ko-77" edge="1">
                    <mxGeometry width="50" height="50" relative="1" as="geometry">
                        <mxPoint x="200" y="885" as="sourcePoint"/>
                        <mxPoint x="275" y="855" as="targetPoint"/>
                    </mxGeometry>
                </mxCell>
            </root>
        </mxGraphModel>
    </diagram>
</mxfile>